<?xml version="1.0" standalone="no"?>
<!DOCTYPE svg PUBLIC "-//W3C//DTD SVG 20010904//EN"
 "http://www.w3.org/TR/2001/REC-SVG-20010904/DTD/svg10.dtd">
<svg version="1.0" xmlns="http://www.w3.org/2000/svg"
 width="442.000000pt" height="442.000000pt" viewBox="0 0 442.000000 442.000000"
 preserveAspectRatio="xMidYMid meet">
<metadata>
Created by potrace 1.11, written by Peter Selinger 2001-2013
</metadata>
<g transform="translate(0.000000,442.000000) scale(0.100000,-0.100000)"
fill="#000000" stroke="none">
<path d="M0 2205 l0 -1465 2210 0 2210 0 0 1465 0 1465 -2210 0 -2210 0 0
-1465z m1470 1035 c0 -83 3 -149 8 -149 4 1 71 1 150 0 l142 -1 0 -145 0 -145
440 0 440 0 0 145 0 146 148 -3 147 -3 2 -125 c1 -69 2 -133 2 -142 1 -16 15
-18 146 -18 l145 0 0 -145 0 -144 146 -3 146 -3 1 -145 2 -145 148 -3 147 -3
0 -439 0 -440 -145 0 -145 0 0 295 0 295 -150 0 -150 0 0 -295 0 -295 -145 0
c-131 0 -145 -2 -146 -17 0 -10 0 -75 -1 -146 l0 -127 -294 0 -294 0 0 145 0
145 295 0 296 0 -3 147 -3 148 -735 0 -735 0 -3 -147 -3 -148 296 0 295 0 0
-145 0 -145 -292 2 -293 3 -2 135 c-1 74 -2 138 -3 143 0 4 -65 7 -145 7
l-145 0 0 295 0 295 -150 0 -150 0 0 -295 0 -295 -145 0 -145 0 0 440 0 439
148 3 147 3 2 145 1 145 146 3 146 3 0 144 0 145 148 0 147 0 -5 147 -5 148
-142 3 -143 3 0 144 0 145 145 0 145 0 0 -150z m1770 5 l0 -145 -145 0 -145 0
0 145 0 145 145 0 145 0 0 -145z"/>
<path d="M1477 2503 c-4 -3 -7 -71 -7 -150 l0 -143 150 0 150 0 0 150 0 150
-143 0 c-79 0 -147 -3 -150 -7z"/>
<path d="M2657 2503 c-4 -3 -7 -71 -7 -150 l0 -143 150 0 150 0 0 150 0 150
-143 0 c-79 0 -147 -3 -150 -7z"/>
</g>
</svg>
