<?xml version="1.0" standalone="no"?>
<!DOCTYPE svg PUBLIC "-//W3C//DTD SVG 20010904//EN"
 "http://www.w3.org/TR/2001/REC-SVG-20010904/DTD/svg10.dtd">
<svg version="1.0" xmlns="http://www.w3.org/2000/svg"
 width="442.000000pt" height="442.000000pt" viewBox="0 0 442.000000 442.000000"
 preserveAspectRatio="xMidYMid meet">
<metadata>
Created by potrace 1.11, written by Peter Selinger 2001-2013
</metadata>
<g transform="translate(0.000000,442.000000) scale(0.100000,-0.100000)"
fill="#000000" stroke="none">
<path d="M0 2205 l0 -1465 2210 0 2210 0 0 1465 0 1465 -2210 0 -2210 0 0
-1465z m1470 1040 l0 -144 148 -3 147 -3 3 -147 3 -148 439 0 439 0 3 148 3
147 145 0 145 0 3 -147 3 -148 144 0 145 0 0 -145 0 -144 148 -3 147 -3 3
-147 3 -148 144 0 145 0 0 -440 0 -440 -145 0 -145 0 -2 293 -3 292 -147 3
-148 3 0 -295 0 -295 -142 -3 -143 -3 -3 -143 -3 -142 -294 0 -295 0 0 145 0
145 295 0 295 0 0 144 c0 141 0 144 -22 150 -29 8 -1406 7 -1435 0 -23 -6 -23
-9 -23 -150 l0 -144 295 0 295 0 0 -145 0 -145 -295 0 -295 0 0 145 0 145
-145 0 -145 0 0 295 0 295 -150 0 -150 0 0 -295 0 -295 -145 0 -145 0 0 440 0
440 145 0 145 0 0 150 0 150 150 0 150 0 0 145 0 145 145 0 146 0 -3 148 -3
147 -142 3 -143 3 0 144 0 145 145 0 145 0 0 -145z m1770 0 l0 -145 -145 0
-145 0 0 145 0 145 145 0 145 0 0 -145z"/>
<path d="M1475 2488 c-3 -13 -4 -79 -3 -148 l3 -125 145 0 145 0 0 145 0 145
-142 3 c-141 3 -143 2 -148 -20z"/>
<path d="M2657 2504 c-4 -4 -7 -72 -7 -151 l0 -144 148 3 147 3 0 145 0 145
-141 3 c-77 1 -143 -1 -147 -4z"/>
</g>
</svg>
